<?xml version="1.0" encoding="utf-8"?>
<!-- Generator: Adobe Illustrator 24.2.3, SVG Export Plug-In . SVG Version: 6.00 Build 0)  -->
<svg version="1.1" id="Layer_1" xmlns="http://www.w3.org/2000/svg" xmlns:xlink="http://www.w3.org/1999/xlink" x="0px" y="0px"
	 viewBox="0 0 512 512" style="enable-background:new 0 0 512 512;" xml:space="preserve">
<style type="text/css">
	.st0{fill:#FB383B;}
</style>
<path class="st0" d="M458,473.4c2.2,0,4.3-0.9,5.8-2.7c2.7-3.2,2.3-8-1-10.7L341.7,359.1c-3.2-2.7-8-2.3-10.7,1s-2.3,8,1,10.7
	l121.2,100.9C454.6,472.9,456.3,473.4,458,473.4z"/>
<path class="st0" d="M170.3,359.1L49,460c-3.2,2.7-3.7,7.5-1,10.7c1.5,1.8,3.7,2.7,5.8,2.7c1.7,0,3.4-0.6,4.9-1.8L180,370.7
	c3.2-2.7,3.7-7.5,1-10.7S173.5,356.4,170.3,359.1z"/>
<path class="st0" d="M511.9,187.4c0-2.3-1-4.4-2.7-5.8L455.7,137V88.2c0-34.6-28.1-62.8-62.8-62.8h-71.2l-3.4-2.9
	c-36.1-30.1-88.5-30.1-124.6,0l-3.4,2.9h-15.4c-4.2,0-7.6,3.4-7.6,7.6s3.4,7.6,7.6,7.6h218c26.2,0,47.5,21.3,47.5,47.5v52.3l0,0
	v90.2L308.5,340.5c-30.5,25.4-74.7,25.4-105.1,0L71.5,230.7v-90.2l0,0V88.2c0-26.2,21.3-47.5,47.6-47.5h25.4c4.2,0,7.6-3.4,7.6-7.6
	s-3.4-7.6-7.6-7.6H119c-34.6,0-62.8,28.1-62.8,62.8v48.8L2.7,181.5C1,183,0,185.1,0,187.3c0,0,0,0,0,0.1v269.3
	C0,487.2,24.8,512,55.3,512h340.6c4.2,0,7.6-3.4,7.6-7.6s-3.4-7.6-7.6-7.6H55.3c-22.1,0-40.1-18-40.1-40.1V203.6L59,240.1l0,0
	l134.6,112.1c18.1,15,40.2,22.6,62.3,22.5c22.1,0,44.3-7.5,62.3-22.5l134.6-112.1c0,0,0,0,0.1-0.1l43.8-36.5v253.1
	c0,22.1-18,40.1-40.1,40.1h-30.4c-4.2,0-7.6,3.4-7.6,7.6s3.4,7.6,7.6,7.6h30.4c30.5,0,55.3-24.8,55.3-55.3V187.4L511.9,187.4z
	 M295.6,25.4h-79.2C241,11.8,271,11.8,295.6,25.4z M56.3,156.7V218l-36.8-30.6L56.3,156.7z M455.7,218v-61.3l36.8,30.6L455.7,218z"
	/>
<path class="st0" d="M367.5,210.6h-223c-4.2,0-7.6,3.4-7.6,7.6s3.4,7.6,7.6,7.6h223c4.2,0,7.6-3.4,7.6-7.6S371.7,210.6,367.5,210.6z
	"/>
<path class="st0" d="M367.5,254.8h-223c-4.2,0-7.6,3.4-7.6,7.6s3.4,7.6,7.6,7.6h223c4.2,0,7.6-3.4,7.6-7.6S371.7,254.8,367.5,254.8z
	"/>
<path class="st0" d="M367.5,122.3h-223c-4.2,0-7.6,3.4-7.6,7.6c0,4.2,3.4,7.6,7.6,7.6h223c4.2,0,7.6-3.4,7.6-7.6
	C375.1,125.7,371.7,122.3,367.5,122.3z"/>
<path class="st0" d="M367.5,166.5h-55.8c-4.2,0-7.6,3.4-7.6,7.6s3.4,7.6,7.6,7.6h55.8c4.2,0,7.6-3.4,7.6-7.6
	S371.7,166.5,367.5,166.5z"/>
<path class="st0" d="M144.5,181.7h141.9c4.2,0,7.6-3.4,7.6-7.6s-3.4-7.6-7.6-7.6H144.5c-4.2,0-7.6,3.4-7.6,7.6
	S140.3,181.7,144.5,181.7z"/>
</svg>
